<svg width="214" height="86" viewBox="0 0 214 86" fill="none" xmlns="http://www.w3.org/2000/svg">
<path fill-rule="evenodd" clip-rule="evenodd" d="M27.3999 9.7422L27.4266 1.83664C27.4266 1.06472 27.8797 0.425889 28.5727 0.13309C29.2656 -0.13309 30.0386 0 30.5717 0.532361L57.0651 27.0439C57.7581 27.736 58.1046 28.5612 58.1046 29.5194V84.7518C58.1046 84.9914 57.918 85.1777 57.6782 85.1777H55.1994C54.9595 85.1777 54.7729 84.9914 54.7729 84.7518C54.7729 66.3055 54.7729 47.8592 54.7729 29.4129L30.6783 5.32361V9.7422C29.6121 9.39617 28.466 9.39617 27.3999 9.7422Z" fill="#EE2624"/>
<path fill-rule="evenodd" clip-rule="evenodd" d="M30.7051 49.2432V55.4452L30.7317 55.4718L43.3654 68.0887C44.0584 68.7808 44.4049 69.606 44.4049 70.5642C44.4049 75.2756 44.4049 80.0136 44.4049 84.725C44.4049 84.9646 44.2183 85.1509 43.9785 85.1509H41.5263C41.2865 85.1509 41.0999 84.9646 41.0999 84.725C41.0999 79.9604 41.0999 75.2224 41.0999 70.4578L30.7051 60.0501C30.7051 68.2751 30.7051 76.4734 30.7051 84.6984C30.7051 84.938 30.5185 85.1243 30.2786 85.1243H27.8265C27.5866 85.1243 27.4 84.938 27.4 84.6984C27.4 76.4734 27.4 68.2751 27.4 60.0501L17.0052 70.4578C17.0052 75.1958 17.0052 79.9604 17.0052 84.6984C17.0052 84.938 16.8186 85.1243 16.5788 85.1243H14.1267C13.8868 85.1243 13.7002 84.938 13.7002 84.6984C13.7002 79.987 13.7002 75.2756 13.7002 70.5376C13.7002 69.5794 14.0467 68.7276 14.7397 68.0621L26.9736 55.8445C27.2668 55.5517 27.4 55.2056 27.4 54.7797V49.1899C28.4662 49.5892 29.6389 49.5892 30.7051 49.2432Z" fill="#EE2624"/>
<path fill-rule="evenodd" clip-rule="evenodd" d="M18.9239 41.2046L3.30502 56.8028C3.30502 66.1191 3.30502 75.4088 3.30502 84.7251C3.30502 84.9647 3.11845 85.151 2.87857 85.151H0.426455C0.186574 85.151 0 84.9647 0 84.7251V56.8827C0 55.9244 0.346494 55.0726 1.03948 54.4072L17.378 38.0903C17.8045 39.1817 18.3375 40.2198 18.9239 41.2046Z" fill="#EE2624"/>
<path fill-rule="evenodd" clip-rule="evenodd" d="M17.6978 29.4928C17.6978 22.1995 21.2427 15.9708 27.1064 12.058C28.2792 11.2861 29.7184 11.2595 30.8912 12.0314C36.8349 15.8111 40.3798 22.3326 40.3798 29.4928C40.3798 36.8926 36.8349 42.9349 30.9978 46.9276C29.7984 47.7528 28.3058 47.7528 27.1064 46.9276C21.216 42.9083 17.6978 36.8128 17.6978 29.4928ZM37.0481 28.1619L30.7046 34.497V43.1212C34.7826 39.7408 37.1014 34.7898 37.1014 29.4928C37.1014 29.0403 37.0748 28.6144 37.0481 28.1619ZM30.7046 29.8388L36.3285 24.2224C35.3157 20.975 33.3966 18.0471 30.7046 15.8378V29.8388ZM21.0561 28.1619C21.0294 28.6144 21.0028 29.0403 21.0028 29.4928C21.0028 34.6301 23.4549 39.8472 27.3996 43.1212V36.4667V34.4704L21.0561 28.1619ZM27.3996 29.8388V27.4698V27.4432V25.8461V15.8644C24.7343 18.0737 22.7886 21.0017 21.8024 24.2224L27.3996 29.8388Z" fill="#EE2624"/>
<path fill-rule="evenodd" clip-rule="evenodd" d="M205.47 31.7021C200.38 31.7021 196.995 35.4287 196.995 40.2465C196.995 45.1176 200.326 48.7643 205.47 48.7643C210.641 48.7643 214 45.091 214 40.2465C214 35.4287 210.535 31.7021 205.47 31.7021ZM205.47 34.8697C208.482 34.8697 210.535 37.3718 210.535 40.2732C210.535 43.2011 208.642 45.5968 205.47 45.5968C202.325 45.5968 200.433 43.2011 200.433 40.2732C200.433 37.3452 202.325 34.8697 205.47 34.8697Z" fill="white"/>
<path fill-rule="evenodd" clip-rule="evenodd" d="M180.39 41.125C180.843 34.71 177.298 31.5957 172.101 31.5957C166.956 31.5957 163.465 35.1625 163.465 40.1401C163.465 45.4105 166.93 48.8176 172.34 48.8176C174.739 48.8176 177.378 47.9924 179.11 46.3421C179.19 46.2622 179.244 46.1558 179.244 46.0493C179.244 45.9428 179.19 45.8364 179.11 45.7565L177.485 44.1594C177.325 43.9997 177.085 43.9997 176.925 44.1594C175.859 45.1177 173.966 45.65 172.447 45.65C169.435 45.65 167.383 44.0263 167.09 41.5242H180.043C180.177 41.5242 180.363 41.3379 180.39 41.125ZM167.09 38.6229C167.623 36.0143 169.702 34.6568 172.181 34.6568C174.952 34.6568 176.845 36.0143 177.058 38.6229H167.09Z" fill="white"/>
<path fill-rule="evenodd" clip-rule="evenodd" d="M138.73 33.5122C136.998 32.1014 135.106 31.5957 132.733 31.5957C129.668 31.5957 125.91 32.9532 125.91 36.5999C125.937 40.2199 129.508 41.2314 132.6 41.5242C135.026 41.7638 136.438 42.3228 136.412 43.7868C136.385 45.3306 134.546 45.9162 132.92 45.9162C131.134 45.8896 129.002 45.2774 127.483 43.84C127.403 43.7601 127.27 43.7069 127.163 43.7335C127.03 43.7335 126.923 43.8134 126.87 43.8932L125.564 45.65C125.43 45.8097 125.457 46.0493 125.59 46.1824C127.723 48.3917 130.281 48.9507 132.84 48.9507C137.105 48.9507 139.797 46.8212 139.85 43.7601C139.877 39.5279 135.905 38.8624 132.893 38.5962C130.788 38.3833 129.348 37.8509 129.322 36.4934C129.322 35.1891 130.734 34.4971 132.813 34.5237C134.306 34.5237 135.612 34.8165 136.838 35.7747C137.025 35.9078 137.265 35.8812 137.424 35.7215L138.81 34.0978C138.89 34.0179 138.917 33.9115 138.917 33.7784C138.89 33.6719 138.837 33.5921 138.73 33.5122Z" fill="white"/>
<path fill-rule="evenodd" clip-rule="evenodd" d="M114.475 31.7021C109.384 31.7021 105.999 35.4287 105.999 40.2465C105.999 45.1176 109.331 48.7643 114.475 48.7643C119.646 48.7643 123.004 45.091 123.004 40.2465C123.004 35.4287 119.539 31.7021 114.475 31.7021ZM114.475 34.8697C117.487 34.8697 119.539 37.3718 119.539 40.2732C119.539 43.2011 117.647 45.5968 114.475 45.5968C111.33 45.5968 109.437 43.2011 109.437 40.2732C109.437 37.3452 111.33 34.8697 114.475 34.8697Z" fill="white"/>
<path fill-rule="evenodd" clip-rule="evenodd" d="M93.26 48.4447H95.8454C96.0853 48.4447 96.2719 48.2584 96.2719 48.0188V39.5543C96.2719 35.5882 100.323 33.8846 103.228 35.7745C103.335 35.8544 103.442 35.8544 103.575 35.8277C103.682 35.8011 103.788 35.7213 103.841 35.6148L105.094 33.2458C105.201 33.0595 105.147 32.8199 104.961 32.7134C100.91 30.025 92.7803 31.7019 92.7803 39.5543L92.8602 48.0188C92.8602 48.2584 93.0468 48.4447 93.26 48.4447Z" fill="white"/>
<path fill-rule="evenodd" clip-rule="evenodd" d="M184.335 48.4447H186.92C187.16 48.4447 187.347 48.2584 187.347 48.0188V39.5543C187.347 35.5882 191.398 33.8846 194.303 35.7745C194.41 35.8544 194.516 35.8544 194.65 35.8277C194.756 35.8011 194.863 35.7213 194.916 35.6148L196.169 33.2458C196.275 33.0595 196.222 32.8199 196.036 32.7134C191.984 30.025 183.855 31.7019 183.855 39.5543L183.908 48.0188C183.908 48.2584 184.095 48.4447 184.335 48.4447Z" fill="white"/>
<path fill-rule="evenodd" clip-rule="evenodd" d="M146.273 56.0577H143.688C143.448 56.0577 143.261 55.8713 143.261 55.6318V40.2732C143.208 35.3222 146.753 31.6755 151.737 31.6755C156.801 31.6755 160.266 35.4021 160.266 40.2199C160.266 45.091 156.908 48.7377 151.737 48.7377C149.765 48.7377 148.059 48.2053 146.7 47.2471V55.6052C146.7 55.8713 146.513 56.0577 146.273 56.0577ZM151.737 34.8697C148.592 34.8697 146.7 37.3718 146.7 40.2732C146.7 43.2012 148.592 45.5968 151.737 45.5968C154.909 45.5968 156.801 43.2012 156.801 40.2732C156.801 37.3452 154.722 34.8697 151.737 34.8697Z" fill="white"/>
<path fill-rule="evenodd" clip-rule="evenodd" d="M75.7219 55.9517H73.1365C72.8966 55.9517 72.7101 55.7654 72.7101 55.5258V40.1672C72.6568 35.2163 76.2017 31.5696 81.1858 31.5696C86.25 31.5696 89.7149 35.2961 89.7149 40.114C89.7149 44.9851 86.3566 48.6317 81.1858 48.6317C79.2135 48.6317 77.5077 48.0994 76.1484 47.1411V55.4992C76.1484 55.7654 75.9618 55.9517 75.7219 55.9517ZM81.1858 34.7371C78.0674 34.7371 76.1484 37.2392 76.1484 40.1406C76.1484 43.0686 78.0407 45.4642 81.1858 45.4642C84.3576 45.4642 86.25 43.0686 86.25 40.1406C86.25 37.2392 84.171 34.7371 81.1858 34.7371Z" fill="white"/>
<path fill-rule="evenodd" clip-rule="evenodd" d="M205.684 61.5145L200.753 72.5077L196.382 61.5411C196.329 61.3814 196.169 61.2749 195.982 61.2749H192.277L198.834 77.4587L195.582 84.9916H199.101C199.261 84.9916 199.42 84.8851 199.474 84.7254L209.575 61.2749H206.004C205.897 61.2749 205.764 61.3548 205.684 61.5145Z" fill="white"/>
<path fill-rule="evenodd" clip-rule="evenodd" d="M181.696 57.2556V61.2749H178.951C178.711 61.2749 178.524 61.4612 178.524 61.7008V63.8302C178.524 64.0698 178.711 64.2561 178.951 64.2561H181.696V72.0818C181.696 75.9414 183.722 77.9644 187.293 77.8845C188.333 77.8845 189.239 77.6982 190.225 77.299C190.438 77.2191 190.545 76.9795 190.465 76.7666L189.586 74.2113C188.919 74.5307 188.146 74.7702 187.48 74.7702C185.881 74.7702 185.108 73.812 185.108 72.0818V64.2561H191.558L190.465 61.5677C190.412 61.408 190.252 61.3015 190.065 61.3015H185.134V56.9628C185.134 56.8297 185.081 56.7232 185.001 56.6433C184.921 56.5635 184.788 56.5369 184.681 56.5369L182.043 56.803C181.856 56.8563 181.696 57.0426 181.696 57.2556Z" fill="white"/>
<path fill-rule="evenodd" clip-rule="evenodd" d="M114.475 60.6094C109.384 60.6094 105.999 64.3359 105.999 69.1538C105.999 74.0249 109.331 77.6715 114.475 77.6715C119.646 77.6715 123.004 73.9982 123.004 69.1538C123.004 64.3359 119.539 60.6094 114.475 60.6094ZM114.475 63.7769C117.487 63.7769 119.539 66.279 119.539 69.1804C119.539 72.1084 117.647 74.504 114.475 74.504C111.33 74.504 109.437 72.1084 109.437 69.1804C109.437 66.2524 111.33 63.7769 114.475 63.7769Z" fill="white"/>
<path fill-rule="evenodd" clip-rule="evenodd" d="M93.26 77.3519H95.8454C96.0853 77.3519 96.2719 77.1656 96.2719 76.926V68.4615C96.2719 64.4954 100.323 62.7918 103.228 64.6817C103.335 64.7616 103.442 64.7616 103.575 64.735C103.682 64.7083 103.788 64.6285 103.841 64.522L105.094 62.153C105.201 61.9667 105.147 61.7271 104.961 61.6207C100.91 58.9322 92.7803 60.6092 92.7803 68.4615L92.8602 76.926C92.8602 77.1656 93.0468 77.3519 93.26 77.3519Z" fill="white"/>
<path fill-rule="evenodd" clip-rule="evenodd" d="M128.335 84.9649H125.749C125.509 84.9649 125.323 84.7786 125.323 84.539V69.207C125.27 64.256 128.814 60.6094 133.799 60.6094C138.863 60.6094 142.328 64.3359 142.328 69.1538C142.328 74.0249 138.969 77.6715 133.799 77.6715C131.826 77.6715 130.12 77.1392 128.761 76.1809V84.539C128.761 84.7786 128.575 84.9649 128.335 84.9649ZM133.799 63.7769C130.68 63.7769 128.761 66.279 128.761 69.1804C128.761 72.1084 130.654 74.504 133.799 74.504C136.97 74.504 138.863 72.1084 138.863 69.1804C138.863 66.2524 136.784 63.7769 133.799 63.7769Z" fill="white"/>
<path fill-rule="evenodd" clip-rule="evenodd" d="M161.6 70.1386C162.053 63.7237 158.508 60.6094 153.311 60.6094C148.166 60.6094 144.675 64.1762 144.675 69.1538C144.675 74.4241 148.14 77.8312 153.55 77.8312C155.949 77.8312 158.588 77.0061 160.32 75.3558C160.4 75.2759 160.454 75.1694 160.454 75.063C160.454 74.9565 160.4 74.85 160.32 74.7702L158.694 73.1731C158.535 73.0134 158.295 73.0134 158.135 73.1731C157.069 74.1313 155.176 74.6637 153.657 74.6637C150.645 74.6637 148.593 73.04 148.3 70.5379H161.253C161.386 70.5379 161.573 70.3516 161.6 70.1386ZM148.3 67.6365C148.833 65.028 150.912 63.6704 153.39 63.6704C156.162 63.6704 158.055 65.028 158.268 67.6365H148.3Z" fill="white"/>
<path fill-rule="evenodd" clip-rule="evenodd" d="M164.024 77.3519H167.462V68.4615C167.462 64.4954 171.514 62.7918 174.419 64.6817C174.525 64.7616 174.632 64.7616 174.765 64.735C174.872 64.7083 174.979 64.6285 175.032 64.522L176.285 62.153C176.391 61.9667 176.338 61.7271 176.151 61.6207C172.1 58.9322 163.971 60.6092 163.971 68.4615L164.024 77.3519Z" fill="white"/>
<path fill-rule="evenodd" clip-rule="evenodd" d="M75.7218 84.8582H73.1364C72.8965 84.8582 72.71 84.6719 72.71 84.4323V69.0737V69.0471C72.71 64.2292 76.0683 60.5027 81.1857 60.5027C86.2499 60.5027 89.7148 64.2292 89.7148 69.0471C89.7148 73.9182 86.3565 77.5648 81.1857 77.5648C79.2134 77.5648 77.5076 77.0325 76.1482 76.0742V84.4323C76.1482 84.6719 75.9617 84.8582 75.7218 84.8582ZM81.1857 63.6436C78.0673 63.6436 76.1482 66.1457 76.1482 69.0471C76.1482 71.9751 78.0406 74.3707 81.1857 74.3707C84.3575 74.3707 86.2499 71.9751 86.2499 69.0471C86.2499 66.1457 84.1709 63.6436 81.1857 63.6436Z" fill="white"/>
</svg>
