<svg width="126" height="50" viewBox="0 0 126 50" fill="none" xmlns="http://www.w3.org/2000/svg">
<g clip-path="url(#clip0_934:53)">
<path fill-rule="evenodd" clip-rule="evenodd" d="M16.0625 5.71875L16.0781 1.07812C16.0781 0.625 16.3438 0.25 16.75 0.078125C17.1563 -0.078125 17.6094 0 17.9219 0.3125L33.4531 15.875C33.8594 16.2812 34.0625 16.7656 34.0625 17.3281V49.75C34.0625 49.8906 33.9531 50 33.8125 50H32.3594C32.2188 50 32.1094 49.8906 32.1094 49.75C32.1094 38.9219 32.1094 28.0938 32.1094 17.2656L17.9844 3.125V5.71875C17.3594 5.51562 16.6875 5.51562 16.0625 5.71875Z" fill="#EE2624"/>
<path fill-rule="evenodd" clip-rule="evenodd" d="M18 28.9063V32.5469L18.0156 32.5625L25.4219 39.9688C25.8281 40.375 26.0312 40.8594 26.0312 41.4219C26.0312 44.1875 26.0312 46.9688 26.0312 49.7344C26.0312 49.875 25.9219 49.9844 25.7812 49.9844H24.3438C24.2031 49.9844 24.0938 49.875 24.0938 49.7344C24.0938 46.9375 24.0938 44.1563 24.0938 41.3594L18 35.25C18 40.0781 18 44.8906 18 49.7188C18 49.8594 17.8906 49.9688 17.75 49.9688H16.3125C16.1719 49.9688 16.0625 49.8594 16.0625 49.7188C16.0625 44.8906 16.0625 40.0781 16.0625 35.25L9.96875 41.3594C9.96875 44.1406 9.96875 46.9375 9.96875 49.7188C9.96875 49.8594 9.85937 49.9688 9.71875 49.9688H8.28125C8.14063 49.9688 8.03125 49.8594 8.03125 49.7188C8.03125 46.9531 8.03125 44.1875 8.03125 41.4063C8.03125 40.8438 8.23438 40.3438 8.64063 39.9531L15.8125 32.7813C15.9844 32.6094 16.0625 32.4063 16.0625 32.1563V28.875C16.6875 29.1094 17.375 29.1094 18 28.9063Z" fill="#EE2624"/>
<path fill-rule="evenodd" clip-rule="evenodd" d="M11.0938 24.1875L1.9375 33.3437C1.9375 38.8125 1.9375 44.2656 1.9375 49.7344C1.9375 49.875 1.82813 49.9844 1.6875 49.9844H0.25C0.109375 49.9844 0 49.875 0 49.7344V33.3906C0 32.8281 0.203125 32.3281 0.609375 31.9375L10.1875 22.3594C10.4375 23 10.75 23.6094 11.0938 24.1875Z" fill="#EE2624"/>
<path fill-rule="evenodd" clip-rule="evenodd" d="M10.375 17.3125C10.375 13.0313 12.4531 9.37501 15.8906 7.07813C16.5781 6.62501 17.4219 6.60938 18.1094 7.06251C21.5937 9.28126 23.6719 13.1094 23.6719 17.3125C23.6719 21.6563 21.5937 25.2031 18.1719 27.5469C17.4687 28.0313 16.5937 28.0313 15.8906 27.5469C12.4375 25.1875 10.375 21.6094 10.375 17.3125ZM21.7187 16.5313L18 20.25V25.3125C20.3906 23.3281 21.75 20.4219 21.75 17.3125C21.75 17.0469 21.7344 16.7969 21.7187 16.5313ZM18 17.5156L21.2969 14.2188C20.7031 12.3125 19.5781 10.5938 18 9.29688V17.5156ZM12.3438 16.5313C12.3281 16.7969 12.3125 17.0469 12.3125 17.3125C12.3125 20.3281 13.75 23.3906 16.0625 25.3125V21.4063V20.2344L12.3438 16.5313ZM16.0625 17.5156V16.125V16.1094V15.1719V9.31251C14.5 10.6094 13.3594 12.3281 12.7813 14.2188L16.0625 17.5156Z" fill="#EE2624"/>
<path fill-rule="evenodd" clip-rule="evenodd" d="M120.453 18.6094C117.469 18.6094 115.484 20.7969 115.484 23.625C115.484 26.4844 117.437 28.625 120.453 28.625C123.484 28.625 125.453 26.4687 125.453 23.625C125.453 20.7969 123.422 18.6094 120.453 18.6094ZM120.453 20.4688C122.219 20.4688 123.422 21.9375 123.422 23.6406C123.422 25.3594 122.312 26.7656 120.453 26.7656C118.609 26.7656 117.5 25.3594 117.5 23.6406C117.5 21.9219 118.609 20.4688 120.453 20.4688Z" fill="black"/>
<path fill-rule="evenodd" clip-rule="evenodd" d="M105.75 24.1406C106.016 20.375 103.937 18.5469 100.891 18.5469C97.875 18.5469 95.8281 20.6406 95.8281 23.5625C95.8281 26.6563 97.8594 28.6563 101.031 28.6563C102.438 28.6563 103.984 28.1719 105 27.2031C105.047 27.1563 105.078 27.0938 105.078 27.0313C105.078 26.9688 105.047 26.9063 105 26.8594L104.047 25.9219C103.953 25.8281 103.812 25.8281 103.719 25.9219C103.094 26.4844 101.984 26.7969 101.094 26.7969C99.3281 26.7969 98.125 25.8438 97.9531 24.375H105.547C105.625 24.375 105.734 24.2656 105.75 24.1406ZM97.9531 22.6719C98.2656 21.1406 99.4844 20.3438 100.937 20.3438C102.562 20.3438 103.672 21.1406 103.797 22.6719H97.9531Z" fill="black"/>
<path fill-rule="evenodd" clip-rule="evenodd" d="M81.3282 19.6719C80.3126 18.8438 79.2032 18.5469 77.8126 18.5469C76.0157 18.5469 73.8126 19.3438 73.8126 21.4844C73.8282 23.6094 75.922 24.2031 77.7345 24.375C79.1563 24.5156 79.9845 24.8438 79.9688 25.7031C79.9532 26.6094 78.8751 26.9531 77.922 26.9531C76.8751 26.9375 75.6251 26.5781 74.7345 25.7344C74.6876 25.6875 74.6095 25.6563 74.547 25.6719C74.4688 25.6719 74.4063 25.7188 74.3751 25.7656L73.6095 26.7969C73.5313 26.8906 73.547 27.0313 73.6251 27.1094C74.8751 28.4063 76.3751 28.7344 77.8751 28.7344C80.3751 28.7344 81.9532 27.4844 81.9845 25.6875C82.0001 23.2031 79.672 22.8125 77.9063 22.6563C76.672 22.5313 75.8282 22.2188 75.8126 21.4219C75.8126 20.6563 76.6407 20.25 77.8595 20.2656C78.7345 20.2656 79.5001 20.4375 80.2188 21C80.3282 21.0781 80.4688 21.0625 80.5626 20.9688L81.3751 20.0156C81.422 19.9688 81.4376 19.9062 81.4376 19.8281C81.422 19.7656 81.3907 19.7188 81.3282 19.6719Z" fill="black"/>
<path fill-rule="evenodd" clip-rule="evenodd" d="M67.1094 18.6094C64.125 18.6094 62.1406 20.7969 62.1406 23.625C62.1406 26.4844 64.0938 28.625 67.1094 28.625C70.1406 28.625 72.1094 26.4687 72.1094 23.625C72.1094 20.7969 70.0781 18.6094 67.1094 18.6094ZM67.1094 20.4688C68.875 20.4688 70.0781 21.9375 70.0781 23.6406C70.0781 25.3594 68.9687 26.7656 67.1094 26.7656C65.2656 26.7656 64.1563 25.3594 64.1563 23.6406C64.1563 21.9219 65.2656 20.4688 67.1094 20.4688Z" fill="black"/>
<path fill-rule="evenodd" clip-rule="evenodd" d="M54.6719 28.4375H56.1875C56.3281 28.4375 56.4375 28.3281 56.4375 28.1875V23.2188C56.4375 20.8906 58.8125 19.8906 60.5156 21C60.5781 21.0469 60.6406 21.0469 60.7187 21.0313C60.7812 21.0156 60.8437 20.9688 60.875 20.9063L61.6094 19.5156C61.6719 19.4063 61.6406 19.2656 61.5312 19.2031C59.1562 17.625 54.3906 18.6094 54.3906 23.2188L54.4375 28.1875C54.4375 28.3281 54.5469 28.4375 54.6719 28.4375Z" fill="black"/>
<path fill-rule="evenodd" clip-rule="evenodd" d="M108.063 28.4375H109.578C109.719 28.4375 109.828 28.3281 109.828 28.1875V23.2188C109.828 20.8906 112.203 19.8906 113.906 21C113.969 21.0469 114.031 21.0469 114.109 21.0313C114.172 21.0156 114.234 20.9688 114.266 20.9063L115 19.5156C115.063 19.4063 115.031 19.2656 114.922 19.2031C112.547 17.625 107.781 18.6094 107.781 23.2188L107.812 28.1875C107.812 28.3281 107.922 28.4375 108.063 28.4375Z" fill="black"/>
<path fill-rule="evenodd" clip-rule="evenodd" d="M85.7499 32.9063H84.2342C84.0936 32.9063 83.9842 32.7969 83.9842 32.6563V23.6406C83.953 20.7344 86.0311 18.5938 88.953 18.5938C91.9217 18.5938 93.953 20.7813 93.953 23.6094C93.953 26.4688 91.9842 28.6094 88.953 28.6094C87.7967 28.6094 86.7967 28.2969 85.9999 27.7344V32.6406C85.9999 32.7969 85.8905 32.9063 85.7499 32.9063ZM88.953 20.4688C87.1092 20.4688 85.9999 21.9375 85.9999 23.6406C85.9999 25.3594 87.1092 26.7656 88.953 26.7656C90.8124 26.7656 91.9217 25.3594 91.9217 23.6406C91.9217 21.9219 90.703 20.4688 88.953 20.4688Z" fill="black"/>
<path fill-rule="evenodd" clip-rule="evenodd" d="M44.3905 32.8438H42.8749C42.7342 32.8438 42.6249 32.7344 42.6249 32.5938V23.5781C42.5936 20.6719 44.6717 18.5312 47.5936 18.5312C50.5624 18.5312 52.5936 20.7188 52.5936 23.5469C52.5936 26.4063 50.6249 28.5469 47.5936 28.5469C46.4374 28.5469 45.4374 28.2344 44.6405 27.6719V32.5781C44.6405 32.7344 44.5311 32.8438 44.3905 32.8438ZM47.5936 20.3906C45.7655 20.3906 44.6405 21.8594 44.6405 23.5625C44.6405 25.2813 45.7499 26.6875 47.5936 26.6875C49.453 26.6875 50.5624 25.2813 50.5624 23.5625C50.5624 21.8594 49.3436 20.3906 47.5936 20.3906Z" fill="black"/>
<path fill-rule="evenodd" clip-rule="evenodd" d="M120.578 36.1094L117.688 42.5625L115.125 36.125C115.094 36.0313 115 35.9688 114.891 35.9688H112.719L116.563 45.4688L114.656 49.8906H116.719C116.813 49.8906 116.906 49.8281 116.937 49.7344L122.859 35.9688H120.766C120.703 35.9688 120.625 36.0156 120.578 36.1094Z" fill="black"/>
<path fill-rule="evenodd" clip-rule="evenodd" d="M106.516 33.6094V35.9688H104.906C104.766 35.9688 104.656 36.0781 104.656 36.2188V37.4688C104.656 37.6094 104.766 37.7188 104.906 37.7188H106.516V42.3125C106.516 44.5781 107.703 45.7656 109.797 45.7188C110.406 45.7188 110.938 45.6094 111.516 45.375C111.641 45.3281 111.703 45.1875 111.656 45.0625L111.141 43.5625C110.75 43.75 110.297 43.8906 109.906 43.8906C108.969 43.8906 108.516 43.3281 108.516 42.3125V37.7188H112.297L111.656 36.1406C111.625 36.0469 111.531 35.9844 111.422 35.9844H108.531V33.4375C108.531 33.3594 108.5 33.2969 108.453 33.25C108.406 33.2031 108.328 33.1875 108.266 33.1875L106.719 33.3438C106.609 33.375 106.516 33.4844 106.516 33.6094Z" fill="black"/>
<path fill-rule="evenodd" clip-rule="evenodd" d="M67.1094 35.5781C64.125 35.5781 62.1406 37.7656 62.1406 40.5937C62.1406 43.4531 64.0938 45.5937 67.1094 45.5937C70.1406 45.5937 72.1094 43.4375 72.1094 40.5937C72.1094 37.7656 70.0781 35.5781 67.1094 35.5781ZM67.1094 37.4375C68.875 37.4375 70.0781 38.9062 70.0781 40.6094C70.0781 42.3281 68.9687 43.7344 67.1094 43.7344C65.2656 43.7344 64.1563 42.3281 64.1563 40.6094C64.1563 38.8906 65.2656 37.4375 67.1094 37.4375Z" fill="black"/>
<path fill-rule="evenodd" clip-rule="evenodd" d="M54.6719 45.4063H56.1875C56.3281 45.4063 56.4375 45.2969 56.4375 45.1563V40.1875C56.4375 37.8594 58.8125 36.8594 60.5156 37.9688C60.5781 38.0156 60.6406 38.0156 60.7187 38C60.7812 37.9844 60.8437 37.9375 60.875 37.875L61.6094 36.4844C61.6719 36.375 61.6406 36.2344 61.5312 36.1719C59.1562 34.5938 54.3906 35.5781 54.3906 40.1875L54.4375 45.1563C54.4375 45.2969 54.5469 45.4063 54.6719 45.4063Z" fill="black"/>
<path fill-rule="evenodd" clip-rule="evenodd" d="M75.2342 49.875H73.7186C73.578 49.875 73.4686 49.7656 73.4686 49.625V40.625C73.4374 37.7188 75.5155 35.5781 78.4374 35.5781C81.4061 35.5781 83.4374 37.7656 83.4374 40.5938C83.4374 43.4531 81.4686 45.5938 78.4374 45.5938C77.2811 45.5938 76.2811 45.2813 75.4842 44.7188V49.625C75.4842 49.7656 75.3749 49.875 75.2342 49.875ZM78.4374 37.4375C76.6092 37.4375 75.4842 38.9062 75.4842 40.6094C75.4842 42.3281 76.5936 43.7344 78.4374 43.7344C80.2967 43.7344 81.4061 42.3281 81.4061 40.6094C81.4061 38.8906 80.1874 37.4375 78.4374 37.4375Z" fill="black"/>
<path fill-rule="evenodd" clip-rule="evenodd" d="M94.7344 41.1719C95 37.4063 92.9219 35.5781 89.875 35.5781C86.8594 35.5781 84.8125 37.6719 84.8125 40.5938C84.8125 43.6875 86.8438 45.6875 90.0156 45.6875C91.4219 45.6875 92.9687 45.2031 93.9844 44.2344C94.0312 44.1875 94.0625 44.125 94.0625 44.0625C94.0625 44 94.0312 43.9375 93.9844 43.8906L93.0312 42.9531C92.9375 42.8594 92.7969 42.8594 92.7031 42.9531C92.0781 43.5156 90.9687 43.8281 90.0781 43.8281C88.3125 43.8281 87.1094 42.875 86.9375 41.4063H94.5312C94.6094 41.4063 94.7187 41.2969 94.7344 41.1719ZM86.9375 39.7031C87.25 38.1719 88.4687 37.375 89.9219 37.375C91.5469 37.375 92.6562 38.1719 92.7812 39.7031H86.9375Z" fill="black"/>
<path fill-rule="evenodd" clip-rule="evenodd" d="M96.1563 45.4063H98.1719V40.1875C98.1719 37.8594 100.547 36.8594 102.25 37.9688C102.312 38.0156 102.375 38.0156 102.453 38C102.516 37.9844 102.578 37.9375 102.609 37.875L103.344 36.4844C103.406 36.375 103.375 36.2344 103.266 36.1719C100.891 34.5938 96.125 35.5781 96.125 40.1875L96.1563 45.4063Z" fill="black"/>
<path fill-rule="evenodd" clip-rule="evenodd" d="M44.3906 49.8125H42.875C42.7344 49.8125 42.625 49.7031 42.625 49.5625V40.5469V40.5313C42.625 37.7031 44.5937 35.5156 47.5937 35.5156C50.5625 35.5156 52.5937 37.7031 52.5937 40.5313C52.5937 43.3906 50.625 45.5313 47.5937 45.5313C46.4375 45.5313 45.4375 45.2188 44.6406 44.6563V49.5625C44.6406 49.7031 44.5312 49.8125 44.3906 49.8125ZM47.5937 37.3594C45.7656 37.3594 44.6406 38.8281 44.6406 40.5313C44.6406 42.25 45.75 43.6563 47.5937 43.6563C49.4531 43.6563 50.5625 42.25 50.5625 40.5313C50.5625 38.8281 49.3437 37.3594 47.5937 37.3594Z" fill="black"/>
</g>
<defs>
<clipPath id="clip0_934:53">
<rect width="125.453" height="50" fill="white"/>
</clipPath>
</defs>
</svg>
